# xmcd CD database file
#
# Track frame offsets:
#	150
#	19958
#	35975
#	57635
#	80335
#	97492
#	118368
#	132808
#	153911
#	176260
#	197116
#	215109
#	233023
#	259010
#
# Disc length: 3718 seconds
#
# Revision: 0
# Processed by: cddbd v1.5.2PL0 Copyright (c) Steve Scherf et al.
# Submitted via: CDex 1.70beta2
#
DISCID=d10e840e
DTITLE=Jon Justice - The Rebound
DYEAR=2008
DGENRE=Blues
TTITLE0=Nobody's Bizness
TTITLE1=Bad Bad Man
TTITLE2=Mean Old World
TTITLE3=All In My Herd
TTITLE4=The Rebound
TTITLE5=Blame
TTITLE6=Leavin' To Stay
TTITLE7=You And Me
TTITLE8=Lose It All
TTITLE9=Working Girl
TTITLE10=No Good Goodbyes
TTITLE11=You're Mine
TTITLE12=Get You Good
TTITLE13=Brighter Day
EXTD=YEAR: 2008
EXTT0=
EXTT1=
EXTT2=
EXTT3=
EXTT4=
EXTT5=
EXTT6=
EXTT7=
EXTT8=
EXTT9=
EXTT10=
EXTT11=
EXTT12=
EXTT13=
PLAYORDER=
